<?xml version="1.0" encoding="iso-8859-1"?>
<!-- Generator: Adobe Illustrator 19.0.0, SVG Export Plug-In . SVG Version: 6.00 Build 0)  -->
<svg version="1.1" id="Capa_1" xmlns="http://www.w3.org/2000/svg" xmlns:xlink="http://www.w3.org/1999/xlink" x="0px" y="0px"
	 viewBox="0 0 480 480" style="enable-background:new 0 0 480 480;" xml:space="preserve">
<g>
	<path style="fill:#63C8CD;" d="M221.897,280h-48v-43.92l115.28-82.32l-33.52-44.72L147.417,184h-81.12l-54,60.08
		c-14.189,15.853-13.486,40.038,1.6,55.04l49.2,49.2l14.8-21.04V480h64V344h56v56h64v-80C261.897,297.909,243.989,280,221.897,280
		L221.897,280z M77.897,285.44L65.097,272l12.8-12.8V285.44z"/>
	<circle style="fill:#63C8CD;" cx="117.897" cy="128" r="56"/>
</g>
<path style="fill:#EF9F35;" d="M165.897,384h176v96h-176V384z"/>
<path style="fill:#F7D04F;" d="M421.897,0h-16c0,30.928-25.072,56-56,56v16c30.928,0,56,25.072,56,56h16c0-30.928,25.072-56,56-56
	V56C446.97,56,421.897,30.928,421.897,0z"/>
<g>
	<path style="fill:#5A5A60;" d="M249.182,217.567l21.801-15.997l9.465,12.9l-21.801,15.997L249.182,217.567z"/>
	<path style="fill:#5A5A60;" d="M289.214,188.252l79.968-58.7l9.468,12.898l-79.968,58.7L289.214,188.252z"/>
	<path style="fill:#5A5A60;" d="M289.441,121.327l47.993-31.995l8.875,13.313l-47.993,31.995L289.441,121.327z"/>
</g>
<path style="fill:#E05B69;" d="M85.897,184l32,56l32-56H85.897z"/>
<g>
</g>
<g>
</g>
<g>
</g>
<g>
</g>
<g>
</g>
<g>
</g>
<g>
</g>
<g>
</g>
<g>
</g>
<g>
</g>
<g>
</g>
<g>
</g>
<g>
</g>
<g>
</g>
<g>
</g>
</svg>
