<svg height="511pt" viewBox="-33 0 511 511.99" width="511pt" xmlns="http://www.w3.org/2000/svg"><path d="m233.597656 482.335938-2.34375 2.34375v-52.691407c0-4.421875-3.574218-8-8-8-4.421875 0-8 3.578125-8 8v52.691407l-2.34375-2.34375c-3.125-3.128907-8.183594-3.128907-11.3125 0-3.125 3.125-3.125 8.183593 0 11.308593l15.992188 15.992188c.738281.746093 1.625 1.328125 2.609375 1.738281.976562.40625 2.015625.613281 3.054687.613281 1.042969 0 2.082032-.207031 3.058594-.613281.984375-.410156 1.871094-.992188 2.605469-1.738281l15.992187-15.992188c3.128906-3.125 3.128906-8.183593 0-11.308593-3.125-3.128907-8.183594-3.128907-11.3125 0zm0 0" fill="#37bc9b"/><path d="m228.917969 2.34375c-.742188-.746094-1.621094-1.328125-2.605469-1.738281-1.953125-.808594-4.160156-.808594-6.113281 0-.984375.410156-1.863281.992187-2.609375 1.738281l-15.992188 15.992188c-3.125 3.125-3.125 8.183593 0 11.308593 1.5625 1.570313 3.609375 2.351563 5.65625 2.351563 2.050782 0 4.097656-.78125 5.65625-2.34375l2.34375-2.34375v52.6875c0 4.425781 3.578125 8 8 8 4.425782 0 8-3.574219 8-8v-52.6875l2.34375 2.34375c1.5625 1.5625 3.609375 2.34375 5.65625 2.34375 2.050782 0 4.097656-.78125 5.65625-2.34375 3.128906-3.125 3.128906-8.183594 0-11.308594zm0 0" fill="#37bc9b"/><path d="m445.769531 377.902344-5.859375-21.839844c-1.152344-4.273438-5.519531-6.808594-9.796875-5.65625-4.265625 1.144531-6.808593 5.527344-5.65625 9.800781l.855469 3.199219-45.632812-26.34375c-3.824219-2.214844-8.71875-.886719-10.929688 2.925781-2.207031 3.832031-.894531 8.722657 2.929688 10.929688l45.632812 26.34375-3.199219.855469c-4.265625 1.144531-6.808593 5.527343-5.65625 9.800781.957031 3.574219 4.183594 5.929687 7.71875 5.929687.6875 0 1.382813-.089844 2.078125-.273437l21.859375-5.855469c.023438-.007812.039063-.023438.0625-.03125.878907-.242188 1.6875-.679688 2.449219-1.210938.191406-.140624.375-.261718.550781-.421874.6875-.578126 1.320313-1.242188 1.800781-2.066407.023438-.039062.023438-.085937.039063-.125.488281-.875.824219-1.832031.953125-2.832031.125-1.050781.0625-2.113281-.199219-3.128906zm0 0" fill="#26b28a"/><path d="m.769531 134.070312 5.847657 21.839844c.949218 3.574219 4.183593 5.9375 7.71875 5.9375.6875 0 1.382812-.097656 2.078124-.28125 4.265626-1.144531 6.800782-5.519531 5.65625-9.800781l-.855468-3.191406 45.632812 26.34375c1.246094.734375 2.625 1.078125 3.984375 1.078125 2.765625 0 5.457031-1.4375 6.9375-4 2.207031-3.832032.894531-8.71875-2.929687-10.925782l-45.625-26.351562 3.191406-.847656c4.265625-1.152344 6.800781-5.527344 5.65625-9.800782-1.136719-4.273437-5.519531-6.800781-9.800781-5.65625l-21.820313 5.839844c-1.027344.265625-1.984375.742188-2.832031 1.398438-.761719.585937-1.363281 1.3125-1.859375 2.113281-.039062.089844-.132812.136719-.191406.230469-.085938.144531-.078125.304687-.152344.457031-.390625.777344-.726562 1.578125-.839844 2.449219-.007812.015625 0 .03125 0 .046875-.136718 1.046875-.078125 2.113281.203125 3.121093zm0 0" fill="#37bc9b"/><path d="m375.6875 175.996094c1.359375 0 2.734375-.34375 3.992188-1.070313l45.640624-26.351562-.855468 3.199219c-1.144532 4.273437 1.390625 8.65625 5.65625 9.800781.695312.183593 1.390625.28125 2.078125.28125 3.527343 0 6.769531-2.363281 7.71875-5.9375l5.851562-21.839844c.269531-1.015625.335938-2.082031.191407-3.144531-.121094-.878906-.449219-1.710938-.839844-2.503906-.074219-.144532-.074219-.296876-.152344-.441407-.050781-.078125-.121094-.117187-.167969-.183593-.503906-.824219-1.136719-1.558594-1.90625-2.160157-.839843-.648437-1.800781-1.125-2.808593-1.390625l-21.839844-5.847656c-4.253906-1.152344-8.65625 1.382812-9.796875 5.65625-1.144531 4.273438 1.390625 8.65625 5.65625 9.800781l3.199219.855469-45.632813 26.34375c-3.832031 2.207031-5.144531 7.101562-2.929687 10.925781 1.488281 2.570313 4.175781 4.007813 6.945312 4.007813zm0 0" fill="#26b28a"/><path d="m66.847656 337.0625-45.632812 26.335938.855468-3.191407c1.152344-4.265625-1.390624-8.65625-5.65625-9.800781-4.261718-1.144531-8.644531 1.382812-9.796874 5.65625l-5.847657 21.832031c-.273437 1.015625-.347656 2.078125-.203125 3.136719.136719 1 .472656 1.949219.953125 2.832031.015625.039063.015625.085938.039063.125.480468.824219 1.113281 1.488281 1.800781 2.066407.175781.160156.359375.28125.550781.421874.761719.53125 1.5625.96875 2.449219 1.210938.023437.007812.039063.023438.0625.03125l21.859375 5.855469c.695312.183593 1.390625.273437 2.078125.273437 3.527344 0 6.761719-2.355468 7.71875-5.929687 1.152344-4.265625-1.390625-8.65625-5.65625-9.800781l-3.199219-.855469 45.632813-26.335938c3.832031-2.207031 5.144531-7.105469 2.929687-10.929687-2.226562-3.832032-7.128906-5.15625-10.9375-2.933594zm0 0" fill="#37bc9b"/><path d="m399.261719 255.996094c0 97.203125-78.796875 176-176 176-97.199219 0-176-78.796875-176-176 0-97.199219 78.800781-176 176-176 97.203125 0 176 78.800781 176 176zm0 0" fill="#48cfad"/><path d="m223.261719 79.996094c-5.398438 0-10.726563.28125-16 .761718 89.707031 8.082032 160 83.433594 160 175.238282 0 91.800781-70.292969 167.152344-160 175.242187 5.273437.480469 10.601562.757813 16 .757813 97.203125 0 176-78.796875 176-176 0-97.207032-78.796875-176-176-176zm0 0" fill="#37bc9b"/><path d="m295.261719 207.996094v24.242187l-24-16.242187s-16 8-44 8c-27.917969 0-52-8-52-8l-24 16.242187v-24.242187c0-35.359375 28.640625-64 64-64h48v32c17.683593 0 32 14.320312 32 32zm0 0" fill="#965353"/><path d="m263.261719 175.996094v-32h-32v48c17.683593 0 32 6.320312 32 24v2.960937c5.152343-1.597656 8-2.960937 8-2.960937l24 16.242187v-24.242187c0-17.679688-14.316407-32-32-32zm0 0" fill="#844747"/><path d="m295.261719 232.238281v23.757813c0 28.242187-16.316407 52.714844-40 64.472656-9.597657 4.808594-20.476563 7.519531-32 7.519531-11.519531 0-22.398438-2.71875-32-7.519531-23.597657-11.679688-39.839844-36-40-64.070312v-24.160157l24-16.242187s24.082031 8 52 8c28 0 44-8 44-8zm0 0" fill="#eac6bb"/><path d="m271.261719 215.996094s-2.847657 1.371094-8 2.960937v37.039063c0 28.242187-16.316407 52.714844-40 64.472656-5.015625 2.503906-10.382813 4.417969-16 5.695312 5.144531 1.171876 10.496093 1.832032 16 1.832032 11.523437 0 22.402343-2.71875 32-7.519532 23.683593-11.757812 40-36.230468 40-64.46875v-23.761718zm0 0" fill="#d3b1a9"/><path d="m223.261719 327.988281c11.523437 0 22.402343-2.71875 32-7.519531v31.519531l-16 8-16-8-16 8-16-8v-31.519531c9.601562 4.800781 20.480469 7.519531 32 7.519531zm0 0" fill="#e6e9ed"/><path d="m239.261719 359.988281 16-8h24c22.160156 0 40 17.921875 40 40v11.523438c-27.597657 18-60.636719 28.476562-96 28.476562-35.4375 0-68.398438-10.476562-96-28.476562v-11.523438c0-22.078125 17.921875-40 40-40h24l16 8 16-8zm0 0" fill="#5d9cec"/><path d="m279.261719 351.988281h-24l-1.34375.671875c18.953125 3.179688 33.34375 19.523438 33.34375 39.328125v27.945313c11.273437-4.40625 22-9.902344 32-16.421875v-11.523438c0-22.078125-17.839844-40-40-40zm0 0" fill="#4a89dc"/></svg>