<svg id="Layer_1" enable-background="new 0 0 511.39 511.39" height="512" viewBox="0 0 511.39 511.39" width="512" xmlns="http://www.w3.org/2000/svg"><g><g><g><g id="XMLID_6644_"><path d="m295.705 483.365c-11.5 0-21.16-8.953-21.882-20.587l-10.877-175.408c-.749-12.096 8.449-22.511 20.545-23.261 12.089-.75 22.51 8.447 23.261 20.545l10.877 175.408c.749 12.096-8.449 22.511-20.545 23.261-.463.028-.922.042-1.379.042z" fill="#55696e"/></g><g id="XMLID_6619_"><path d="m220.628 483.365c-.458 0-.916-.014-1.379-.043-12.096-.75-21.294-11.164-20.545-23.261l10.877-175.408c.751-12.097 11.159-21.295 23.261-20.545 12.096.75 21.294 11.164 20.545 23.261l-10.877 175.408c-.721 11.634-10.383 20.588-21.882 20.588z" fill="#748488"/></g></g><g fill="#ba6746"><circle cx="258.167" cy="60.777" r="37.901"/><path d="m183.515 88.376-11.154-6.262.126-63.79c.02-10.1-8.152-18.304-18.251-18.324h-.037c-10.082 0-18.266 8.164-18.286 18.251l-.148 74.52c-.014 6.625 3.558 12.739 9.334 15.983l23.096 12.966 17.784-12.3z"/><path d="m277.118 111.927-.097-1.169h-37.37l-.043.34c-1.439 11.275 7.346 21.252 18.712 21.252 11.033.001 19.711-9.427 18.798-20.423z"/><path d="m380.913 18.251c-.02-10.087-8.204-18.251-18.286-18.251h-.037c-10.099.02-18.271 8.224-18.251 18.324l.126 63.79-11.13 6.248v21.565l14.898 12.016 23.494-13.19c5.777-3.243 9.348-9.357 9.334-15.983z"/></g><path d="m293.441 110.759h-16.42c-.082 9.748-9.191 17.897-18.716 17.897-10.21 0-17.822-8.12-18.654-17.897h-16.267l-39.869-22.383-15.32 33.344 41.327 23.202v141.09h97.261l-.172-140.725c.189-.098.38-.19.566-.294l41.055-23.049-14.898-33.581z" fill="#ffda52"/></g><g><g><path d="m21.756 494.994c-12.01 0-21.747-9.737-21.747-21.747v-161.856c0-12.011 9.737-21.747 21.747-21.747s21.747 9.737 21.747 21.747v161.855c0 12.011-9.737 21.748-21.747 21.748z" fill="#5f6e9b"/></g><g><path d="m103.944 494.995c-11.198 0-20.708-8.593-21.649-19.953l-7.751-93.536-28.196-82.379c-3.889-11.364 2.17-23.729 13.534-27.618 11.364-3.89 23.729 2.17 27.618 13.534l29.07 84.934c.58 1.697.949 3.459 1.097 5.246l7.975 96.227c.991 11.97-7.907 22.477-19.877 23.469-.611.051-1.219.076-1.821.076z" fill="#414b82"/></g><path d="m70.621 155.837h-45.248c-14.013 0-25.373 11.36-25.373 25.373v130.181h95.994v-130.181c0-14.013-11.36-25.373-25.373-25.373z" fill="#64afff"/><ellipse cx="48.194" cy="106.583" fill="#ffb69e" rx="37.56" ry="37.56" transform="matrix(.16 -.987 .987 .16 -64.732 137.082)"/><path d="m133.72 28.836c-10.052-2.432-20.165 3.741-22.597 13.789l-17.123 70.718-27.221 23.314 5.931 20.709 17.846 8.146 32.356-27.623c3.001-2.56 5.117-6.003 6.046-9.838l18.55-76.618c2.432-10.047-3.741-20.164-13.788-22.597z" fill="#ffb69e"/><path d="m66.779 136.657-39.924 33.952c-7.865 6.708-8.804 18.523-2.095 26.389 6.708 7.865 18.522 8.804 26.389 2.095l39.407-33.581z" fill="#4699f2"/></g><g><g><path d="m415.319 477.432-18.491-93.912c-.848-4.048-.543-8.253.881-12.136l26.329-90.092c4.201-11.453 16.892-17.333 28.344-13.132 11.453 4.201 17.333 16.89 13.132 28.344l-24.15 84.151 17.193 87.718c2.502 11.94-5.149 23.647-17.089 26.149-11.886 2.489-23.636-5.094-26.149-17.09z" fill="#a56941"/></g><g><g><path d="m489.636 494.994c12.01 0 21.747-9.737 21.747-21.747v-161.856c0-12.011-9.737-21.747-21.747-21.747s-21.747 9.737-21.747 21.747v161.855c-.001 12.012 9.736 21.748 21.747 21.748z" fill="#965028"/></g><path d="m440.771 155.838h45.248c14.013 0 25.373 11.36 25.373 25.373v130.181h-95.994v-130.181c0-14.013 11.36-25.373 25.373-25.373z" fill="#1c9585"/><ellipse cx="463.198" cy="106.583" fill="#ffb69e" rx="37.56" ry="37.56" transform="matrix(.987 -.16 .16 .987 -11.092 75.572)"/><path d="m377.672 28.837c10.052-2.432 20.165 3.741 22.597 13.789l17.122 70.718 27.221 23.314-5.931 20.709-17.846 8.146-32.356-27.623c-3.001-2.56-5.117-6.003-6.046-9.838l-18.55-76.618c-2.432-10.047 3.742-20.164 13.789-22.597z" fill="#ffb69e"/><path d="m444.612 136.657 39.924 33.952c7.865 6.708 8.804 18.523 2.095 26.389-6.708 7.865-18.522 8.804-26.389 2.095l-39.407-33.581z" fill="#177d74"/></g></g></g></svg>